# xmcd
#
# Track frame offsets: 
#        150
#        7141
#        19810
#        33569
#        45201
#        59233
#        70712
#        85777
#        102226
#        126746
#
# Disc length: 1791 seconds
#
# Revision: 0
# Processed by: cddbd v1.5.2PL0 Copyright (c) Steve Scherf et al.
# Submitted via: ExactAudioCopy v0.99pb4
#
DISCID=8806fd0a
DTITLE=Gunsmoke - From Somewhere
DYEAR=1900
DGENRE=Indie
TTITLE0=Gunfight
TTITLE1=Now and Then
TTITLE2=You Always Say
TTITLE3=I Never
TTITLE4=Tortured Soul
TTITLE5=Not the One
TTITLE6=Won't be Back
TTITLE7=Every Hour
TTITLE8=Lead the Way
TTITLE9=Lone Road
EXTD=
EXTT0=
EXTT1=
EXTT2=
EXTT3=
EXTT4=
EXTT5=
EXTT6=
EXTT7=
EXTT8=
EXTT9=
PLAYORDER=
